# xmcd
#
# Track frame offsets:
#       150
#       13730
#       25447
#       38480
#       49867
#       59916
#       70538
#       83744
#       98861
#       111310
#       124881
#       138575
#       151839
#       165977
#       177857
#       186497
#
# Disc length: 2626 seconds
#
# Revision: 1
# Processed by: cddbd v1.4PL0 Copyright (c) Steve Scherf et al.
# Submitted via: MusiCat 1.1
#
DISCID=d90a4010
DTITLE=Holliday, Billie - Billie Holliday
DYEAR=1900
DGENRE=
TTITLE0=The Mood That Im In
TTITLE1=Me Myself and I
TTITLE2=You Go To My Head
TTITLE3=How Could You
TTITLE4=Trav'lin All Alone
TTITLE5=Detaour Ahead
TTITLE6=God Bless The Child
TTITLE7=Its Like reaching For The Moon
TTITLE8=Theis Years Kisses
TTITLE9=What A Little Moonlight Can Do
TTITLE10=Easy Living
TTITLE11=I Cover The Waterfront
TTITLE12=Nice Work If Yo Can Get It
TTITLE13=No Regrets
TTITLE14=Moanin' Low
TTITLE15=T' Aint Nobobys Bizness If I Do
EXTD=0\n\n\n
EXTT0=
EXTT1=
EXTT2=
EXTT3=
EXTT4=
EXTT5=
EXTT6=
EXTT7=
EXTT8=
EXTT9=
EXTT10=
EXTT11=
EXTT12=
EXTT13=
EXTT14=
EXTT15=
PLAYORDER=
